<?xml version="1.0" encoding="UTF-8"?>
<svg id="Layer_2" data-name="Layer 2" xmlns="http://www.w3.org/2000/svg" viewBox="0 0 154.7 139.73">
  <defs>
    <style>
      .cls-1 {
        fill: #d3d3d3;
      }

      .cls-1, .cls-2, .cls-3, .cls-4, .cls-5, .cls-6, .cls-7, .cls-8, .cls-9 {
        stroke: #232323;
      }

      .cls-1, .cls-3, .cls-4, .cls-5, .cls-10, .cls-6, .cls-11, .cls-8, .cls-12, .cls-9, .cls-13, .cls-14 {
        stroke-linecap: round;
      }

      .cls-1, .cls-5, .cls-11, .cls-8, .cls-12, .cls-13 {
        stroke-width: 1.72px;
      }

      .cls-1, .cls-10, .cls-11, .cls-8, .cls-12, .cls-9, .cls-13, .cls-14 {
        stroke-linejoin: round;
      }

      .cls-2 {
        fill: #fff48b;
      }

      .cls-2, .cls-3, .cls-4, .cls-5, .cls-6, .cls-7 {
        stroke-miterlimit: 10;
      }

      .cls-2, .cls-4, .cls-7 {
        stroke-width: 2.58px;
      }

      .cls-3 {
        stroke-width: 5.15px;
      }

      .cls-3, .cls-4, .cls-5, .cls-6, .cls-11, .cls-8, .cls-9, .cls-14 {
        fill: none;
      }

      .cls-15 {
        fill: #fff;
      }

      .cls-16 {
        fill: #232323;
      }

      .cls-10, .cls-11, .cls-13, .cls-14 {
        stroke: #221f21;
      }

      .cls-10, .cls-13 {
        fill: #221f21;
      }

      .cls-10, .cls-14 {
        stroke-width: 1.03px;
      }

      .cls-6 {
        stroke-width: 3.86px;
      }

      .cls-17 {
        fill: #222;
      }

      .cls-7, .cls-18 {
        fill: #feffff;
      }

      .cls-12 {
        fill: #a8826d;
        stroke: #543a2f;
      }

      .cls-9 {
        stroke-width: 1.72px;
      }
    </style>
  </defs>
  <g id="say_that_again_" data-name="say that again?">
    <g>
      <g>
        <path class="cls-4" d="M124.75,116.45c-2.37,2.12-4.85,3.31-5.19,6.2-.34,2.89,1.09,5.74,3.49,7.14,1.92,1.12,3.85.97,4.6.88"/>
        <g>
          <path class="cls-18" d="M113.84,109.97c-1.8,2.8-1.17,7.5.91,8.67,1.82,1.02,3.31.5,4.58,1.69.72.68,1.01.07,1.23,2.27.13,1.25.52,5.11,2.93,6.63,1.49.95,3.75,1.02,5.33.17,5.07-2.71,5.57-16.12-.55-23.13-1.79-2.05-5.18-4.74-7.24-3.83-.98.43-.87,1.33-2.31,3.19-2.15,2.77-3.64,2.4-4.87,4.33Z"/>
          <path class="cls-4" d="M119.48,111.7c-.06-2.53-1.34-4.35-2.72-4.52-1.45-.18-2.71,1.52-3.21,2.52-1.79,3.56.37,9.37,3.79,10.28.1.03,2.45.61,3.93-.97,1.39-1.47.88-3.62.83-3.81"/>
          <path class="cls-4" d="M117.48,107.27c.26-.73.84-2.07,2.12-3.28,1.65-1.58,3.49-2.04,4.27-2.19"/>
          <path class="cls-6" d="M128.7,132.1c.99-1.89,4.46-9.06,2.37-18.09-1.78-7.7-6.56-12.28-8.32-13.81"/>
        </g>
      </g>
      <path class="cls-3" d="M98.77,97.83c-.03.93-.11,8.94,6.36,14.03,4.38,3.44,9.21,3.54,10.74,3.51"/>
      <g>
        <path class="cls-4" d="M70.94,127.52c-2.93-1.23-5.07-2.97-7.82-2.05-2.76.93-4.72,3.43-4.97,6.21-.19,2.21.76,3.9,1.17,4.53"/>
        <g>
          <path class="cls-18" d="M72.13,114.89c-3.3-.43-7.28,2.14-7.45,4.53-.15,2.08.96,3.2.43,4.86-.3.94.37.94-1.53,2.08-1.08.65-4.39,2.65-4.75,5.48-.22,1.75.68,3.83,2.12,4.9,4.62,3.43,16.95-1.85,20.68-10.38,1.09-2.49,2.07-6.71.37-8.18-.81-.7-1.57-.22-3.87-.73-3.42-.76-3.73-2.26-5.99-2.56Z"/>
          <path class="cls-4" d="M72.98,120.72c2.26-1.13,3.36-3.07,2.92-4.38-.46-1.39-2.54-1.8-3.65-1.83-3.98-.1-8.32,4.33-7.67,7.82.02.1.5,2.47,2.56,3.14,1.92.62,3.65-.75,3.8-.88"/>
          <path class="cls-4" d="M76.13,117.02c.77-.08,2.23-.12,3.87.51,2.13.82,3.33,2.28,3.8,2.92"/>
          <path class="cls-6" d="M58.47,137.78c2.13.09,10.09.16,17.37-5.59,6.2-4.9,8.3-11.18,8.93-13.43"/>
        </g>
      </g>
      <path class="cls-3" d="M70.43,100.77c-.56.47-4.62,4.05-4.55,9.97.07,6.04,2.63,8.75,3.18,9.19"/>
      <rect class="cls-17" x="122.79" y="65.72" width="13.3" height="4.22" transform="translate(94.41 -74.04) rotate(48.47)"/>
      <path class="cls-18" d="M133.05,71.87c-2,2.05-2.11,2.52-2.07,2.9.08.93.96,1.04,1.26,2.08.38,1.32-.8,2.36-1.17,3.47-.79,2.37,1.03,6.24,4.35,7.64,2.83,1.19,6.8.67,7.71-1.35.29-.66-.36-1.48.07-1.9.43-.41,1.11.21,1.83-.11,1.14-.51.45-2.58,1.68-3.52,1.06-.81,2.27.19,3.07-.6.83-.82.35-2.71-.26-3.8-.72-1.31-1.58-1.07-3.69-2.59-2.67-1.94-2.53-3.11-4.09-3.36-1.68-.27-2.63.95-4.02.25-.93-.47-.89-1.22-1.64-1.34-.37-.06-.87.04-3.02,2.26Z"/>
      <polygon class="cls-16" points="59.72 65.04 44.63 71.3 42.54 67.1 56.16 58.08 59.72 65.04"/>
      <path class="cls-15" d="M28.68,66.03c.08,1.15.4,3.48,1.97,5.86,1.14,1.72,2.49,2.78,3.37,3.37,1.23,1.75,2.47,3.51,3.7,5.26.92-.26,2.76-.91,4.38-2.58.74-.76,2.61-2.68,2.6-5.62,0-2.15-.98-4.7-2.93-5.84-1.33-.77-1.82-.14-4.69-1.04-2.22-.7-2.48-1.26-3.75-1.34-1.08-.07-2.65.21-4.66,1.92Z"/>
      <path class="cls-9" d="M37.91,66.43c.52-.19,1.43-.43,2.47-.2,2.37.53,3.53,3.13,3.84,4.82.39,2.15-.26,4.76-1.21,4.88-.91.12-1.9-2.06-2.3-3.01,1.43,1.64,1.66,3.89.66,5.48-1,1.59-2.82,1.88-3.12,1.92"/>
      <path class="cls-12" d="M23.52,64.05l3.95-2.34c6.14,11.68,9.7,17.23,11.91,19.73.53.6,2.16,2.36,1.83,4.31-.2,1.19-1.12,2.33-2.34,2.78-1.95.72-3.73-.67-4.09-.95-1.78-1.39-2.21-3.58-2.34-4.16-.64-2.97-2.88-8.51-8.91-19.36Z"/>
      <path class="cls-15" d="M35.87,69.88c0,2.44-1.44,4.42-3.22,4.42s-3.22-1.98-3.22-4.42-.92-4.53.86-4.53,5.59,2.08,5.59,4.53Z"/>
      <path class="cls-9" d="M39.57,69.42c-.71-2.62-2.81-4.57-5.33-4.97-.24-.04-3.86-.66-5.41,1.68-1.27,1.93-.14,4.36.09,4.86,1.03,2.22,3.58,4.26,5.15,3.56,1.22-.55,1.36-2.55,1.37-2.74.11-1.95-1.28-3.23-1.48-3.4"/>
      <path class="cls-15" d="M20.95,70.36c-.22.4-.9,1.63-.44,2.63.35.77,1.21,1.04,1.17,1.72-.03.42-.36.45-.47.84-.35,1.17,2.22,2.08,2.41,4.02.12,1.18-.76,1.59-.4,2.56.32.87,1.35,1.42,2.23,1.53,1.3.17,1.71-.67,3.84-1.46,2.45-.91,4.47-1.9,4.79-2.68.4-.99-2.35-.39-2.34-2.33.01-1.64,1.42-2.21,1.1-3.18-.5-1.5-4.2-1.03-4.46-2.12-.19-.82,2.56-1.39,2.52-2.37-.04-1-2.9-2.03-5.46-1.71-.55.07-3.3.41-4.48,2.55Z"/>
      <ellipse class="cls-7" cx="88.05" cy="23.43" rx="21.59" ry="22.14"/>
      <ellipse class="cls-7" cx="120.71" cy="43.59" rx="21.59" ry="22.14"/>
      <ellipse class="cls-7" cx="107.34" cy="79.24" rx="21.59" ry="22.14"/>
      <ellipse class="cls-7" cx="66.46" cy="79.24" rx="21.59" ry="22.14"/>
      <ellipse class="cls-7" cx="56.59" cy="42.42" rx="21.59" ry="22.14"/>
      <circle class="cls-2" cx="88.05" cy="54.19" r="25.05"/>
      <path class="cls-5" d="M24.65,73.62c1.13-.63,2.87-1.34,4.93-1.21.96.06,1.95.14,2.58.93.52.67.7,1.73.27,2.47-.46.8-1.4.8-3.23,1.37-1.34.41-2.46.91-3.34,1.37"/>
      <path class="cls-5" d="M25.85,78.55c1.13-.63,2.87-1.34,4.93-1.21.96.06,1.95.14,2.58.93.52.67.7,1.73.27,2.47-.46.8-1.4.8-3.23,1.37-1.34.41-2.46.91-3.34,1.37"/>
      <path class="cls-8" d="M27.06,83.49c-1.34.78-3.09.54-3.89-.66-.72-1.07-.57-2.58.38-3.56-.39-.16-1.2-.55-1.81-1.42-1.08-1.55-.62-3.3-.55-3.56-.23-.22-1.44-1.43-1.21-2.85.2-1.19,1.29-1.8,2.68-2.58,2.42-1.36,4.5-1.23,4.93-1.21.96.06,1.95.14,2.58.93.52.67.7,1.73.27,2.47-.46.8-1.4.8-3.23,1.37-1.34.41-1.64.78-2.53,1.23"/>
      <path class="cls-1" d="M27.46,61.71c-4.2,2.35-8.39,4.7-12.59,7.05-3.03-2.93-11.57-11.94-13.59-26.3C-.02,33.22,1.94,25.7,3.33,21.64c8.04,13.36,16.09,26.72,24.13,40.08Z"/>
      <path class="cls-8" d="M8.34,37.07c1.13,2.08,2.27,4.16,3.4,6.25"/>
      <path class="cls-8" d="M13.54,46.23c2.69,4.51,5.37,9.02,8.06,13.54"/>
      <path class="cls-8" d="M134.87,74.52c-.83.57-2.48,1.88-3.23,4.11-1.35,4,.51,9.22,3.23,9.86.63.15,1.21.03,1.64-.11"/>
      <path class="cls-8" d="M133.5,81.26c.77,1.28,2.35,3.86,4.11,6.41.22.32.65.93,1.42,1.21,1.09.39,2.77.09,3.56-1.21.8-1.3.17-2.73.11-2.85,1,.49,2.15.44,2.9-.16,1.06-.85,1.26-2.73.11-4.11,1.04.86,2.51.82,3.4,0,.72-.66.96-1.75.6-2.74-1.55-2.16-3.16-3.55-4.27-4.38-2.08-1.55-4.11-3.07-6.41-2.58-1.42.3-2.38,1.25-2.9,1.86"/>
      <path class="cls-8" d="M131.83,77.12c-.37-.27-.89-.74-1.01-1.42-.11-.58.11-1.12,1.7-3.15,2-2.55,2.44-2.7,2.79-2.74.26-.03,1.22-.08,2.41,1.15"/>
      <g>
        <path class="cls-14" d="M97.17,60.83c.07-.04.13-.07.21-.11.69-.3,1.43-.24,2.05.09"/>
        <path class="cls-10" d="M93.71,52.09c0,2.62.57,4.97,1.47,6.62.38-.35.82-.65,1.32-.86.73-.31,1.47-.45,2.18-.42v-4.23l-1.5-.79,1.5-1.06v-8.22c-.13-.02-.26-.03-.4-.03-2.52,0-4.57,4.03-4.57,9.01Z"/>
        <path class="cls-14" d="M97.17,52.39l1.5.79v4.23c1.03.03,2,.4,2.84,1.02.82-1.63,1.33-3.87,1.33-6.35,0-4.71-1.83-8.57-4.17-8.97v8.22l-1.5,1.06Z"/>
        <path class="cls-14" d="M104.2,43.46c.47-1.26-.06-2.67-1.19-3.29-1.04-.57-2.38-.36-3.23.53"/>
        <path class="cls-14" d="M76.32,60.83c.07-.04.13-.07.21-.11.69-.3,1.43-.24,2.05.09"/>
        <path class="cls-10" d="M72.85,52.09c0,2.62.57,4.97,1.47,6.62.38-.35.82-.65,1.32-.86.73-.31,1.47-.45,2.18-.42v-4.23l-1.5-.79,1.5-1.06v-8.22c-.13-.02-.26-.03-.4-.03-2.52,0-4.57,4.03-4.57,9.01Z"/>
        <path class="cls-14" d="M76.32,52.39l1.5.79v4.23c1.03.03,2,.4,2.84,1.02.82-1.63,1.33-3.87,1.33-6.35,0-4.71-1.83-8.57-4.17-8.97v8.22l-1.5,1.06Z"/>
        <path class="cls-14" d="M83.35,43.46c.47-1.26-.06-2.67-1.19-3.29-1.04-.57-2.38-.36-3.23.53"/>
        <path class="cls-13" d="M91.86,61.93c.01.15.14,1.52,1.26,2.14.39.22.78.27,1.04.27"/>
        <path class="cls-11" d="M83.14,66.37c.76.24,2.65.72,4.93.11,2.43-.65,3.87-2.15,4.38-2.74"/>
      </g>
      <polygon class="cls-16" points="118.27 8.88 119.52 12.24 122.88 13.48 119.52 14.73 118.27 18.09 117.03 14.73 113.66 13.48 117.03 12.24 118.27 8.88"/>
      <polygon class="cls-16" points="49.32 102.66 50.56 106.03 53.92 107.27 50.56 108.51 49.32 111.88 48.07 108.51 44.71 107.27 48.07 106.03 49.32 102.66"/>
      <polygon class="cls-16" points="28.23 11.11 29.47 14.47 32.84 15.72 29.47 16.96 28.23 20.33 26.98 16.96 23.62 15.72 26.98 14.47 28.23 11.11"/>
      <polygon class="cls-16" points="36.69 92.28 38.99 98.48 45.18 100.77 38.99 103.06 36.69 109.26 34.4 103.06 28.2 100.77 34.4 98.48 36.69 92.28"/>
      <polygon class="cls-16" points="146.21 118.72 148.5 124.92 154.7 127.21 148.5 129.5 146.21 135.7 143.92 129.5 137.72 127.21 143.92 124.92 146.21 118.72"/>
      <polygon class="cls-16" points="122.55 7.92 123.17 9.6 124.86 10.22 123.17 10.85 122.55 12.53 121.93 10.85 120.25 10.22 121.93 9.6 122.55 7.92"/>
    </g>
  </g>
</svg>